<svg xmlns="http://www.w3.org/2000/svg" aria-hidden="true" style="position:absolute;width:0;height:0;overflow:hidden"><defs><symbol id="icon-arrow" viewBox="0 0 41 16"><path d="M40.707 8.707a1 1 0 0 0 0-1.414L34.343.929a1 1 0 1 0-1.414 1.414L38.586 8l-5.657 5.657a1 1 0 0 0 1.414 1.414l6.364-6.364ZM0 9h40V7H0v2Z"/></symbol>
<symbol id="icon-close" viewBox="0 0 24 24"><path d="m12.94 12 5.527-5.527a.667.667 0 0 0-.94-.94L12 11.06 6.473 5.527a.67.67 0 1 0-.947.946L11.06 12l-5.534 5.527a.667.667 0 1 0 .94.94L12 12.94l5.526 5.527a.667.667 0 0 0 .94-.94L12.94 12Z"/><path d="M0 0h24v24H0z"/></symbol>
<symbol id="icon-ep-arrow" viewBox="0 0 12 12"><path d="M3.97 1.227a.75.75 0 0 0 0 1.06L7.682 6 3.97 9.712a.75.75 0 0 0 1.06 1.06L9.273 6.53a.75.75 0 0 0 0-1.06L5.03 1.227a.75.75 0 0 0-1.06 0Z"/></symbol>
<symbol id="icon-menu-mob" viewBox="0 0 32 32"><path d="M26.733 14H5.267c-.7 0-1.267.425-1.267.95v.1c0 .525.567.95 1.267.95h21.466c.7 0 1.267-.425 1.267-.95v-.1c0-.525-.567-.95-1.267-.95ZM26.733 20H5.267c-.7 0-1.267.425-1.267.95v.1c0 .525.567.95 1.267.95h21.466c.7 0 1.267-.425 1.267-.95v-.1c0-.525-.567-.95-1.267-.95ZM26.733 8H5.267C4.567 8 4 8.425 4 8.95v.1c0 .525.567.95 1.267.95h21.466c.7 0 1.267-.425 1.267-.95v-.1c0-.525-.567-.95-1.267-.95Z"/></symbol>
<symbol id="icon-fb" viewBox="0 0 11 22"><path d="M9.723 10.98H6.95V21.2H2.748V10.98H.75V7.39h1.998V5.065C2.748 3.403 3.533.8 6.988.8L10.1.813V4.3H7.842c-.37 0-.892.187-.892.98v2.113h3.14l-.367 3.588Z"/></symbol>
<symbol id="icon-github" viewBox="0 0 20 20"><path d="M10 0C4.507 0 0 4.507 0 10c0 4.687 3.289 8.945 7.656 10v-3.308a2.446 2.446 0 0 1-1.271-.033c-.591-.174-1.071-.568-1.428-1.168-.227-.383-.63-.8-1.05-.769l-.103-1.167c.909-.078 1.694.554 2.16 1.337.208.349.447.553.753.643.295.088.613.046.983-.085.093-.741.433-1.018.69-1.41-2.605-.388-3.643-1.77-4.055-2.86-.546-1.449-.253-3.258.712-4.402.019-.022.053-.08.04-.12-.443-1.338.096-2.444.116-2.561.511.15.594-.152 2.22.835l.28.169c.118.07.08.03.198.02A8.487 8.487 0 0 1 10 4.828c.71.009 1.42.11 2.127.302l.091.01c-.008-.002.025-.006.08-.039 2.03-1.23 1.957-.828 2.502-1.005.02.118.551 1.242.114 2.562-.06.182 1.76 1.848.751 4.522-.412 1.09-1.45 2.473-4.054 2.861.334.51.735.78.733 1.83V20C16.71 18.945 20 14.687 20 10c0-5.493-4.507-10-10-10Z"/></symbol>
<symbol id="icon-ice-crema" viewBox="0 0 36 36"><path d="M18.122.12c.09.242.271 1.409.271 1.77a3.47 3.47 0 0 1-.941 2.388c-.505.542-1.01.843-2.222 1.333-1.348.55-1.906.881-2.538 1.506-.64.64-1.017 1.34-1.152 2.162-.151.896 0 1.528.459 1.89l.233.18-.369.234c-.745.49-2.1 1.642-2.334 1.996-.452.678-.407 1.31.105 1.567l.241.12-.271.256c-.407.384-.49.648-.43 1.34.038.46.023.709-.082 1.085-.128.49-.128.497.037.844.166.339.633.768 1.055.949.203.09.21.12.256.813.023.4.06 1.672.09 2.832.023 1.16.076 2.222.12 2.35.038.135.181.316.31.406.436.302.738.626.933 1.002.219.43.46 1.484 1.19 5.129l.512 2.56.317.302c.602.595 1.755.866 3.653.866 1.905 0 3.042-.264 3.645-.859l.324-.308L22 32.46c1.031-5.189 1.122-5.475 1.928-6.115.248-.204.49-.452.534-.565.053-.128.106-1.115.143-2.606.03-1.325.076-2.636.106-2.915l.045-.504.49-.37c.617-.474.858-.903.858-1.566-.007-.783-.52-1.642-1.453-2.41l-.445-.361.219-.31c.911-1.257.339-2.997-1.356-4.156l-.512-.354.188-.196c.836-.896.972-3.57.271-5.43-.421-1.107-1.386-2.312-2.568-3.201C19.87.964 18.272 0 18.13 0c-.03 0-.03.053-.007.12ZM20.29 2.75c.4.392.881.926 1.07 1.197 1.122 1.567 1.408 3.533.73 4.979-.271.587-1.085 1.46-1.838 1.98-1.152.799-3.743 2.14-5.55 2.877-2.907 1.183-4.595 1.409-4.79.633-.076-.294.143-.527 1.07-1.145.835-.572 4.586-3.359 4.653-3.472.023-.03-.361.143-.843.384-1.634.829-2.41.67-2.372-.482.022-.836.625-1.785 1.46-2.327.212-.135.867-.437 1.47-.678 1.98-.798 2.583-1.205 3.253-2.206.4-.595.836-1.695.866-2.162.008-.165.038-.294.06-.294.023 0 .362.324.76.716Zm2.056 8.556c.55.308 1.122.836 1.37 1.25.438.745.212 1.491-.73 2.44-1.024 1.04-2.771 2.034-4.692 2.666-1.77.58-3.464.851-5.89.934l-1.506.053.98.06c1.265.083 3.712.008 4.661-.143 2.523-.4 4.67-1.198 6.206-2.297.347-.249.708-.452.806-.452.249 0 1.333 1.04 1.552 1.476.12.249.15.43.128.67-.113 1.002-1.334 1.537-4.278 1.89-3.6.43-8.307.008-10.318-.918-.95-.437-1.107-.686-.866-1.348.075-.211.09-.46.06-.814-.038-.467-.03-.527.135-.7.377-.407 1.01-.64 3.33-1.228.813-.21 1.92-.542 2.447-.738 1.28-.467 3.683-1.68 4.797-2.425 1.047-.693 1.198-.723 1.808-.376Zm-10.002 9.218c1.582.46 2.983.595 5.589.542 1.958-.037 3.163-.158 4.902-.467.355-.06.663-.113.701-.113.083 0 .06 2.892-.03 3.653-.098.806-.317 1.431-.55 1.582-.241.158-1.446.324-3.058.414-3.306.18-6.703 0-7.757-.422-.572-.233-.633-.535-.64-3.329 0-1.86.015-2.116.113-2.078.06.022.391.12.73.218Zm1.785 6.402c.542.067 1.13.135 1.31.158l.325.038-.287.316c-.369.399-.934 1.197-1.137 1.604-.233.467-.309.497-.655.309l-.294-.166-.165-1.024a28.822 28.822 0 0 0-.211-1.183c-.068-.195-.136-.195 1.114-.052Zm8.029-.083c0 .015-.038.21-.076.43-.045.225-.233 1.453-.421 2.733-.384 2.674-.64 3.931-.874 4.353-.324.565-1.1.896-2.357 1.002-.49.038-1.966-.06-2.049-.136-.06-.067 1.235-1.672 1.439-1.777.188-.106.24-.09.88.24.746.393 1.123.453 1.123.204 0-.248-.196-.49-.678-.82-.444-.317-.602-.498-.602-.709 0-.06.218-.399.482-.753.263-.354.647-.919.843-1.258l.37-.61.338.046c.685.098.866.09.844-.06-.015-.076-.143-.294-.287-.475-.143-.188-.256-.377-.256-.414 0-.143.7-1.461.927-1.74.196-.241.354-.362.354-.256Zm-4.707.602c.376.249 1.792 1.477 1.882 1.627.038.068-1.415 2.342-1.702 2.666-.03.038-.188-.037-.346-.158a24.697 24.697 0 0 0-1.31-.904l-1.017-.67.61-1.032c1.084-1.815 1.062-1.785 1.295-1.785.12 0 .384.113.588.256Zm2.854.271c-.264.324-.482.528-.572.528-.196 0-.513-.173-1.047-.565l-.445-.324.89-.053a17.57 17.57 0 0 0 1.03-.067c.603-.098.603-.09.144.481Zm-5.694 3.623c.693.271 1.868.911 2.207 1.198.241.195.241.21.143.451a7.58 7.58 0 0 1-.467.806 13.73 13.73 0 0 0-.505.836c-.24.467-.316.505-.813.37-.535-.159-.82-.43-.971-.92-.204-.685-.528-2.62-.49-2.922.015-.113.331-.045.896.181Z"/></symbol>
<symbol id="icon-telegram" viewBox="0 0 22 16"><path d="m8.671 10.524-.337 4.43c.483 0 .692-.194.943-.426l2.263-2.02 4.69 3.207c.86.447 1.467.211 1.699-.739l3.079-13.464V1.51c.273-1.187-.46-1.651-1.297-1.36L1.613 6.617C.378 7.065.397 7.707 1.404 8L6.03 9.342l10.747-6.276c.506-.313.966-.14.587.173l-8.693 7.285Z"/></symbol>
<symbol id="icon-logo" viewBox="0 0 60 65"><path fill="#F8D24E" d="M30.928 34.698c2.874-7.687-3.077-11.894-7.021-14.66-.754-.565-1.508-1.093-2.12-1.576a7.346 7.346 0 0 1-2.316-3.452 7.25 7.25 0 0 1-.059-4.138.792.792 0 0 0-.234-.802.819.819 0 0 0-.83-.165 13.35 13.35 0 0 0-3.657 2.149 8.6 8.6 0 0 0-2.49 2.999 8.47 8.47 0 0 0-.897 3.773 10.018 10.018 0 0 0-1.953 2.015 7.316 7.316 0 0 0-1.44 4.72 9.339 9.339 0 0 0-2.612 4.017 9.224 9.224 0 0 0-.262 4.764c-.48.286-.853.72-1.059 1.234a2.494 2.494 0 0 0-.083 1.615c.153.533.478 1.002.927 1.334.449.333.996.511 1.557.508h.053v4.37c0 .444.18.87.497 1.184.319.313.75.49 1.2.49h1.32l2.15 18.362c.044.409.24.787.551 1.061.31.275.713.426 1.13.426h8.945c.418-.001.82-.153 1.132-.427.311-.274.51-.651.558-1.06l2.149-18.362h1.32c.45 0 .881-.177 1.2-.49a1.66 1.66 0 0 0 .497-1.183v-4.372h.053a2.59 2.59 0 0 0 1.818-.742c.482-.475.753-1.12.753-1.793a2.473 2.473 0 0 0-.754-1.806l-.023.007Zm-19.36-13.946c1.086 4.022 5.28 5.605 9.104 7.018a.831.831 0 0 0 1-.106.81.81 0 0 0 .25-.642.801.801 0 0 0-.34-.601.829.829 0 0 0-.33-.138c-4.118-1.539-8.002-2.974-8.296-7.085a6.79 6.79 0 0 1 .627-3.288 6.896 6.896 0 0 1 2.126-2.607c.574-.47 1.19-.889 1.84-1.25a9.527 9.527 0 0 0 0 1.547 8.714 8.714 0 0 0 .96 3.378 8.833 8.833 0 0 0 2.223 2.74c.626.528 1.403 1.071 2.262 1.65 1.984 1.406 4.239 2.975 5.672 5.1a7.844 7.844 0 0 1 .822 7.546h-3.334c-6.87 0-14.767-1.873-16.328-7.122a5.939 5.939 0 0 1 .007-3.301 6.01 6.01 0 0 1 1.773-2.802l-.038-.037Zm6.185 25.343 2.519 2.483-2.52 2.483-2.518-2.498 2.519-2.468Zm5.777 6.52-2.082 2.052-2.519-2.483 2.52-2.476 2.186 2.148-.105.759Zm-5.777 5.694-2.52-2.483 2.52-2.483 2.519 2.483-2.52 2.483Zm-1.154-6.11-2.52 2.483-2.096-2.067-.09-.744 2.187-2.148 2.519 2.476Zm-3.68 3.627-.506.498-.128-1.13.633.632Zm-.265 2.543 1.426-1.405 2.768 2.75c.014.056.032.11.053.164h-4.073l-.174-1.51Zm8.78-1.405 1.425 1.405-.174 1.487H18.5l2.934-2.892Zm1.658-.64-.505-.498.641-.632-.136 1.13Zm.755-6.497-1.26-1.264 1.599-1.576-.34 2.84Zm-2.421-2.394-2.391-2.349h4.782l-2.391 2.35Zm-7.354 0-2.39-2.349h4.781l-2.39 2.35Zm8.146 15.88H13.28a.06.06 0 0 1-.052-.052l-.212-1.785h9.473l-.204 1.785a.06.06 0 0 1-.06.052h-.007Zm6.916-25.901h-2.625a.834.834 0 0 0-.631.207.81.81 0 0 0-.27.6.8.8 0 0 0 .27.6.824.824 0 0 0 .631.206h.935v4.371a.059.059 0 0 1-.02.038.06.06 0 0 1-.04.014H8.099a.06.06 0 0 1-.04-.014.06.06 0 0 1-.02-.038v-4.37h14.94a.826.826 0 0 0 .53-.263.803.803 0 0 0 0-1.09.826.826 0 0 0-.53-.261H6.387a.948.948 0 0 1-.715-.238.922.922 0 0 1-.304-.68.91.91 0 0 1 .304-.68.94.94 0 0 1 .715-.238h1.712a.827.827 0 0 0 .53-.262.804.804 0 0 0 0-1.09.827.827 0 0 0-.53-.262H6.591a7.859 7.859 0 0 1 .103-3.411 7.926 7.926 0 0 1 1.54-3.056c.529 1.62 1.886 3.836 5.28 5.598 3.19 1.642 7.414 2.483 12.55 2.483h3.017a.948.948 0 0 1 .715.237.923.923 0 0 1 .304.68.91.91 0 0 1-.304.681.94.94 0 0 1-.715.238h.053Z"/><path fill="#F8D24E" d="m34.459 59.215-.595.911.012.008.583-.92Zm6.396.308 1.087-.025-.028-1.259-1.241.211.182 1.073Zm.074 3.346.277 1.053.83-.219-.02-.858-1.087.024Zm-8.394.16.245-1.06-.007-.002-.238 1.062Zm-4.143-1.849.704-.83h-.002l-.702.83Zm-1.498-3.4 1.088.006v-.006h-1.088Zm.52-2.38-.976-.48v.002l.976.478Zm3.336-2.847.386 1.017.004-.002-.39-1.015Zm10.689-.276 1.085.084.071-.919-.894-.221-.262 1.056Zm-.266 3.41-.202 1.069 1.193.226.094-1.21-1.085-.085Zm-2.9-1.396c-1.633 0-3.006.174-4.008.615-.514.226-.981.544-1.322.993a2.56 2.56 0 0 0-.518 1.573H34.6a.39.39 0 0 1 .076-.258c.057-.075.184-.193.464-.316.584-.257 1.591-.431 3.132-.431V54.29Zm-5.848 3.181c0 1.12.502 2.043 1.44 2.654l1.188-1.823c-.324-.21-.452-.449-.452-.831h-2.176Zm1.451 2.662c.89.563 2.062.774 3.377.774v-2.176c-1.136 0-1.826-.192-2.212-.437l-1.165 1.839Zm3.377.774c1.29 0 2.552-.104 3.784-.313l-.364-2.145a20.41 20.41 0 0 1-3.42.282v2.176Zm2.514-1.361.074 3.347 2.176-.049-.075-3.346-2.175.048Zm.885 2.27c-1.244.328-2.616.496-4.122.496v2.176c1.668 0 3.228-.186 4.676-.567l-.554-2.105Zm-4.122.496c-1.537 0-2.78-.121-3.75-.344l-.489 2.12c1.183.273 2.603.4 4.24.4v-2.176Zm-3.757-.346c-1.039-.232-1.789-.479-2.289-.723l-.955 1.955c.718.35 1.654.642 2.769.892l.475-2.124Zm-2.289-.723a6.625 6.625 0 0 1-1.388-.894l-1.408 1.66a8.8 8.8 0 0 0 1.841 1.189l.955-1.955Zm-1.39-.895c-.74-.625-1.118-1.441-1.112-2.563l-2.176-.011c-.009 1.71.611 3.16 1.883 4.236l1.405-1.662Zm-1.112-2.569c0-.731.143-1.358.41-1.901l-1.955-.957c-.428.873-.631 1.833-.631 2.858h2.176Zm.409-1.9c.494-1.006 1.368-1.788 2.745-2.31l-.772-2.035c-1.796.682-3.146 1.799-3.926 3.385l1.953.96Zm2.75-2.312c1.447-.555 3.062-.841 4.858-.841v-2.176c-2.03 0-3.913.323-5.639.986l.78 2.031Zm4.858-.841c1.831 0 3.556.203 5.178.606l.524-2.112c-1.807-.448-3.709-.67-5.702-.67v2.176Zm4.355-.535-.265 3.41 2.169.17.266-3.411-2.17-.169Zm1.022 2.426c-1.132-.214-2.169-.327-3.103-.327v2.176c.765 0 1.662.093 2.698.289l.405-2.138Zm10.616 1.738-.006 1.088 1.105.006-.011-1.105-1.088.011Zm-.468-1.413-.74.798.01.008.73-.806Zm-2.71.107.754.785.008-.008-.761-.777Zm-.658 1.285-1.074-.176-.206 1.257 1.274.007.006-1.088Zm8 5.801.658.867.39-.296.037-.49-1.084-.08Zm-2.348.872-.233-1.063-.007.001.24 1.062Zm-8.16-.298-.37 1.023.008.003.362-1.026Zm-1.859-.988-.675.853.006.005.007.005.662-.863Zm-1.243-1.562-.975.482.002.005.973-.487Zm1.275-6.598.724.813-.724-.813Zm9.945-1.18.435-.996-.01-.005-.425 1.002Zm2.497 2.296-.979.475.003.006.976-.481Zm.425 1.902 1.085.078.003-.039v-.04h-1.088Zm-.128 1.753-.005 1.088 1.017.005.073-1.014-1.085-.08Zm-8.617-.043.006-1.088-1.42-.007.362 1.373 1.053-.278Zm1.233 1.52-.535.947.004.002.531-.95Zm6.609-.372V58.35h-.218l-.2.083.418 1.005Zm.573 0 1.085.08.088-1.168h-1.173v1.088Zm-3.278-3.093c-.009-.787-.19-1.631-.825-2.208l-1.462 1.612c-.013-.011.012.002.043.096.033.1.065.267.068.523l2.175-.023Zm-.816-2.199c-.57-.53-1.32-.705-2.057-.705v2.176c.423 0 .553.101.577.124l1.48-1.595Zm-2.057-.705c-.81 0-1.564.254-2.154.831l1.523 1.555c.119-.117.293-.21.63-.21V53.44Zm-2.146.824a3.318 3.318 0 0 0-.979 1.894l2.148.353c.05-.302.165-.512.338-.678l-1.507-1.57Zm.089 3.158 3.836.021.012-2.175-3.836-.022-.012 2.176Zm7.35 3.846c-.24.181-.821.433-1.925.676l.467 2.125c1.148-.253 2.132-.582 2.772-1.067l-1.315-1.734Zm-1.932.677a13.76 13.76 0 0 1-3.043.356v2.176c1.15 0 2.325-.138 3.524-.41l-.48-2.122Zm-3.043.356c-1.025 0-1.87-.048-2.543-.139l-.29 2.157c.8.107 1.748.158 2.833.158v-2.176Zm-2.543-.139a9.867 9.867 0 0 1-1.971-.479l-.725 2.052c.791.28 1.593.474 2.406.584l.29-2.157Zm-1.962-.476c-.637-.23-1.154-.51-1.569-.828l-1.324 1.726c.62.475 1.342.854 2.15 1.148l.742-2.046Zm-1.556-.818a3.467 3.467 0 0 1-.945-1.195l-1.946.973a5.638 5.638 0 0 0 1.54 1.928l1.352-1.706Zm-.943-1.191c-.229-.463-.365-1.059-.365-1.823H40.98c0 1.02.182 1.961.59 2.787l1.951-.964Zm-.365-1.823c0-.766.138-1.442.399-2.043l-1.996-.866c-.391.9-.579 1.875-.579 2.909h2.176Zm.399-2.043c.274-.632.61-1.1.99-1.437l-1.448-1.626c-.654.583-1.161 1.327-1.538 2.197l1.996.866Zm.99-1.438c1.17-1.042 2.953-1.647 5.523-1.647v-2.176c-2.883 0-5.264.677-6.971 2.199l1.448 1.624Zm5.523-1.647c1.154 0 2.242.22 3.273.657l.85-2.003a10.457 10.457 0 0 0-4.123-.83v2.176Zm3.263.653c.962.42 1.585 1.015 1.953 1.773l1.957-.95c-.623-1.283-1.665-2.218-3.04-2.817l-.87 1.994Zm1.956 1.78c.203.41.313.878.313 1.42h2.176c0-.847-.174-1.648-.538-2.384l-1.95.963Zm.316 1.34-.128 1.754 2.17.158.128-1.754-2.17-.157Zm.963.745-8.617-.043-.01 2.176 8.616.043.01-2.176Zm-9.675 1.323c.255.964.877 1.695 1.75 2.189l1.07-1.895c-.43-.243-.63-.525-.715-.85l-2.105.556Zm1.754 2.191c.882.493 1.986.691 3.219.691v-2.176c-1.033 0-1.722-.17-2.157-.414l-1.062 1.9Zm3.219.691c1.323 0 2.777-.358 4.339-1.008l-.837-2.009c-1.398.583-2.559.841-3.502.841v2.176Zm3.92-.924h.574V58.35h-.573v2.176Zm-.51-1.17-.203 2.7 2.17.162.202-2.7-2.17-.162Z"/></symbol>
<symbol id="icon-weight" viewBox="0 0 36 36"><path d="M15.95.615c-4.471.663-8.153 3.146-9.508 6.396-.432 1.027-.548 1.658-.548 2.895.008.914.041 1.253.183 1.746.29.97.498 1.464.93 2.16l.4.646-.45.55c-3.548 4.415-3.939 10.625-.98 15.517 1.105 1.836 2.909 3.639 4.67 4.69l.524.307 7.164-.056 7.172-.065.34-.186c1.189-.671 2.867-2.167 3.806-3.38a14.188 14.188 0 0 0 2.726-6.323c.133-.833.133-3.3-.008-4.084-.424-2.417-1.33-4.487-2.759-6.323-.274-.348-.49-.639-.49-.663 0-.016.15-.267.324-.55.407-.647.773-1.48.972-2.207.224-.809.224-2.83 0-3.639-.798-2.87-3.191-5.264-6.573-6.582-.948-.372-2.569-.768-3.616-.897-.972-.113-3.374-.09-4.28.048Zm5.06 1.318c4.438.865 7.688 3.582 8.286 6.93.133.752.05 2.03-.174 2.741-.225.695-.64 1.512-1.13 2.207-.2.283-.366.607-.366.712 0 .105.174.38.424.655 2.077 2.304 3.174 5.191 3.174 8.312-.008 3.55-1.371 6.663-3.997 9.105-.449.42-1.089.946-1.43 1.172l-.623.42-6.873.025-6.864.032-.532-.34c-1.928-1.252-3.665-3.322-4.629-5.522-1.213-2.781-1.338-6.008-.349-8.902.524-1.504 1.222-2.733 2.285-4.027.433-.518.632-.825.632-.97 0-.122-.216-.518-.499-.93-.997-1.448-1.404-3.057-1.163-4.577.25-1.536.947-2.798 2.235-4.051 1.68-1.625 4.023-2.7 6.774-3.105 1.138-.17 3.656-.105 4.82.113Z"/><path d="M16.323 3.356c-3.407.558-6.075 2.45-6.947 4.933-.2.558-.233.776-.233 1.577 0 .8.033 1.018.233 1.576.124.356.357.85.515 1.1.432.695.623.72 1.48.202a13.439 13.439 0 0 1 4.28-1.674c1.03-.21 3.008-.29 4.13-.161 1.753.202 3.656.832 5.177 1.73.432.25.873.46.98.46.632 0 1.438-1.819 1.438-3.233 0-3.146-3.008-5.839-7.271-6.51-.906-.145-2.91-.145-3.782 0Zm4.114 1.294c1.43.307 2.742.89 3.732 1.658 1.33 1.027 2.044 2.458 1.927 3.84-.041.55-.249 1.294-.373 1.375-.034.016-.5-.178-1.031-.437A16.485 16.485 0 0 0 21.06 9.85c-.773-.161-1.097-.186-2.825-.178-1.704 0-2.061.025-2.8.178a14.97 14.97 0 0 0-3.508 1.197c-1.238.59-1.172.598-1.396-.13-.29-.945-.108-2.199.457-3.145.3-.501 1.122-1.334 1.72-1.746 1.139-.785 2.136-1.14 4.28-1.529.44-.08 2.884.033 3.449.154ZM19.083 15.08c-.233.292-.233.567.008.801.158.154.316.194.89.235a7.322 7.322 0 0 1 3.132.954c.682.404 1.72 1.383 2.186 2.086.69 1.01 1.163 2.458 1.163 3.526 0 .372.034.485.208.646.266.267.615.267.873 0 .183-.186.19-.234.141-1.026-.233-3.914-3.582-7.18-7.587-7.4l-.832-.048-.182.227Z"/></symbol>
<symbol id="icon-cow" viewBox="0 0 36 36"><path d="M6.94.216C6.645.47 5.806 2.22 5.505 3.176c-.358 1.183-.48 2.07-.432 3.296.065 1.75.505 3.078 1.474 4.464.253.364.457.676.457.702 0 .017-.155.034-.35.034-.84 0-2.412.279-3.617.642C1.124 12.89 0 13.895 0 15.02c0 .398.358 1.074.741 1.42.741.669 2.362 1.303 4.105 1.607.603.11 2.395.296 2.794.304.073 0 .098.39.098 1.666 0 1.099.04 1.953.122 2.477.293 1.877 1.205 3.863 2.41 5.267l.416.482-.277.448c-.407.634-.562 1.116-.61 1.834-.123 1.725.952 3.255 3.03 4.329 3.957 2.054 10.107 1.251 12.412-1.623 1.124-1.404 1.254-3.01.366-4.464l-.277-.448.497-.6c.929-1.116 1.531-2.232 1.987-3.644.383-1.2.53-2.359.53-4.194 0-.836.024-1.53.065-1.53.375-.008 2.175-.203 2.745-.304 1.751-.304 3.34-.93 4.105-1.606.383-.347.741-1.023.741-1.42 0-1.252-1.27-2.266-3.633-2.875-.773-.203-2.231-.448-2.94-.49l-.334-.026.367-.507c.456-.617 1.026-1.818 1.246-2.604.619-2.274.236-4.92-1.091-7.448C29.06.022 28.677-.223 28.23.19c-.171.162-.245.381-.407 1.176-.505 2.528-1.442 4.531-2.81 6.01l-.603.66H11.525l-.538-.583c-1.335-1.471-2.305-3.55-2.81-6.087C8.014.571 7.941.352 7.77.191c-.269-.245-.53-.237-.83.025ZM7.981 5.23c.432.946.97 1.834 1.604 2.654l.505.651-.529.397c-.497.38-.961.922-1.32 1.54l-.154.278-.391-.533c-1.336-1.842-1.67-4.1-.961-6.442.342-1.132.334-1.124.643-.143.147.473.424 1.192.603 1.598Zm21.2-1.784a8.354 8.354 0 0 1 .465 2.849c0 1.538-.407 2.84-1.262 4.007l-.383.524-.285-.482A5.064 5.064 0 0 0 26.29 8.78c-.22-.143-.39-.287-.39-.304 0-.025.154-.22.35-.431.904-1.006 1.873-2.815 2.354-4.371.146-.482.293-.88.317-.88.025 0 .147.297.26.652Zm-4.161 6.18c.904.38 1.767 1.47 1.906 2.392.073.507.244.829.464.88.098.016.774.075 1.499.126 2.573.17 4.601.719 5.465 1.471.399.355.358.651-.122 1.015-.961.727-3.038 1.276-5.156 1.37-1.401.059-1.694.1-1.882.295-.138.144-.154.296-.154 1.826 0 2.072-.106 3.264-.367 4.227-.366 1.31-1.091 2.706-1.938 3.695l-.35.406-.725-.432a8.99 8.99 0 0 0-2.688-1.09c-3.087-.736-6.5-.288-8.796 1.158l-.53.338-.334-.397c-.456-.533-1.173-1.674-1.458-2.316-.627-1.455-.814-2.638-.814-5.242 0-2.528.13-2.342-1.743-2.443-2.395-.127-4.22-.558-5.368-1.285-.847-.541-.708-1.023.473-1.59 1.132-.55 2.687-.879 4.846-1.014 1.678-.11 1.718-.136 1.873-.947.228-1.226 1.132-2.24 2.273-2.562.285-.084 1.881-.101 6.768-.093l6.394.017.464.195Zm-4.578 17.5c1.996.49 3.486 1.403 4.13 2.536.155.262.22.533.252.947.033.515.009.642-.187 1.065-.904 1.92-4.227 3.187-7.607 2.9-4.064-.338-6.736-2.604-5.685-4.827.57-1.201 2.5-2.35 4.536-2.689.334-.05.668-.11.733-.127.066-.017.799-.017 1.63 0 1.131.026 1.677.076 2.198.195Z"/><path  d="M12.364 13.861c-.505.17-.847.39-1.303.846-.4.38-.432.828-.098 1.099.31.253.603.22.977-.11.473-.414.84-.583 1.296-.583.456-.009.806.152 1.294.583.375.33.668.363.978.11.163-.135.212-.245.212-.5 0-.261-.057-.38-.343-.667-.806-.811-2.003-1.124-3.013-.778ZM21.86 13.852c-.52.195-1.189.635-1.457.964-.261.322-.27.685 0 .956.268.287.594.27.985-.051.961-.795 1.678-.82 2.566-.085.228.195.488.347.57.347.399 0 .725-.355.725-.778 0-.27-.676-.896-1.287-1.192-.676-.33-1.482-.389-2.101-.16ZM13.545 29.502c-.236.228-.318.558-.196.82.09.211.228.296.79.448.253.067.359.152.448.363.114.28.123.28.75.305l.627.025v-.237c-.008-.338-.196-.828-.44-1.166-.285-.39-.782-.643-1.344-.694-.383-.034-.48-.017-.635.136ZM21.323 29.442c-.407.11-.993.66-1.156 1.09a2.92 2.92 0 0 0-.155.77c-.016.363.016.448.212.625.48.423 1.116.093 1.116-.583 0-.33.244-.558.676-.643.456-.084.619-.27.627-.701 0-.567-.505-.786-1.32-.558Z"/><path fill="fff" d="M0 0h36v36H0z"/></symbol>
<symbol id="icon-cursor" viewBox="0 0 19 24"><path stroke="#131313" stroke-width="2" d="m6.047 2.012 10.934 10.205c1.871 1.746.837 4.883-1.706 5.174l-4.118.47a5 5 0 0 0-2.777 1.251l-2.373 2.136C4.077 22.986 1 21.616 1 19.018V4.206C1 1.582 4.13.222 6.047 2.012Z"/></symbol>
</defs></svg>
